<svg id="Layer_1" enable-background="new 0 0 512 512" viewBox="0 0 512 512" xmlns="http://www.w3.org/2000/svg"><path d="m35.63 207.473c10.84-49.38 38.52-94.25 77.95-126.36 39.47-32.12 89.13-49.99 140.07-50.47l-18.06-18.05c-2.74-2.73-2.74-7.15-.01-9.88 2.73-2.74 7.15-2.74 9.88-.01l30.45 30.41c1.31 1.31 2.04 3.09 2.04 4.95 0 1.85-.73 3.63-2.04 4.94l-30.45 30.41c-1.36 1.37-3.15 2.05-4.94 2.05-1.78 0-3.57-.68-4.94-2.05-2.73-2.73-2.73-7.15.01-9.88l18.93-18.92c-98.04.57-184.24 70.14-205.24 165.85-.71 3.27-3.61 5.5-6.82 5.5-.49 0-1-.06-1.5-.17-3.77-.83-6.16-4.55-5.33-8.32zm178.54 255.77c-98-19.56-169.23-106.15-169.78-206.12l18.98 19c1.37 1.36 3.16 2.05 4.95 2.05 1.78 0 3.57-.69 4.93-2.05 2.73-2.73 2.74-7.15.01-9.88l-30.41-30.44c-1.32-1.31-3.09-2.05-4.95-2.05-1.85 0-3.63.74-4.94 2.05l-30.42 30.44c-2.72 2.73-2.72 7.15.01 9.88s7.15 2.73 9.88 0l18-18.01c.49 51.66 18.83 101.87 51.77 141.6 32.97 39.75 78.86 67.18 129.23 77.24.46.09.92.13 1.38.13 3.26 0 6.18-2.29 6.84-5.62.76-3.78-1.7-7.46-5.48-8.22zm256.69-169.03c-3.77-.79-7.48 1.63-8.27 5.41-20.3 96.76-106.64 167.09-205.57 167.69l18.89-18.87c2.73-2.72 2.73-7.15 0-9.88s-7.15-2.73-9.88 0l-30.44 30.41c-1.32 1.31-2.05 3.09-2.05 4.94 0 1.86.73 3.64 2.04 4.95l30.44 30.44c1.37 1.36 3.16 2.04 4.95 2.04 1.78 0 3.57-.68 4.94-2.04 2.73-2.73 2.73-7.16 0-9.89l-18.14-18.13c51.32-.47 101.28-18.56 140.89-51.09 39.59-32.5 67.15-77.86 77.61-127.7.79-3.78-1.63-7.48-5.41-8.28zm38.59-58.42c-2.73-2.72-7.15-2.72-9.88.01l-18.5 18.51c-.38-51.01-18.2-100.78-50.32-140.32-31.99-39.4-76.74-67.11-125.99-78.03-3.77-.83-7.5 1.54-8.34 5.31-.83 3.77 1.55 7.5 5.31 8.34 95.28 21.12 164.57 107.04 165.36 204.67l-18.46-18.48c-2.73-2.73-7.15-2.73-9.88-.01-2.73 2.73-2.74 7.16-.01 9.89l30.41 30.44c1.32 1.31 3.09 2.05 4.95 2.05 1.85 0 3.63-.74 4.94-2.05l30.42-30.44c2.72-2.73 2.72-7.16-.01-9.89zm-189.06 52.62h-18.67v6.31c0 3.86-3.13 6.99-6.99 6.99h-6.31v18.67c0 3.86-3.13 6.99-6.99 6.99s-6.98-3.13-6.98-6.99v-18.67h-11.46v18.67c0 3.86-3.13 6.99-6.99 6.99s-6.99-3.13-6.99-6.99v-18.67h-11.46v18.67c0 3.86-3.12 6.99-6.98 6.99s-6.99-3.13-6.99-6.99v-18.67h-6.31c-3.86 0-6.99-3.13-6.99-6.99v-6.31h-18.67c-3.86 0-6.99-3.13-6.99-6.99s3.13-6.99 6.99-6.99h18.67v-11.46h-18.67c-3.86 0-6.99-3.12-6.99-6.98s3.13-6.99 6.99-6.99h18.67v-11.46h-18.67c-3.86 0-6.99-3.13-6.99-6.99s3.13-6.99 6.99-6.99h18.67v-6.3c0-3.86 3.13-6.99 6.99-6.99h6.31v-18.68c0-3.86 3.13-6.98 6.99-6.98s6.98 3.12 6.98 6.98v18.68h11.46v-18.68c0-3.86 3.13-6.98 6.99-6.98s6.99 3.12 6.99 6.98v18.68h11.46v-18.68c0-3.86 3.12-6.98 6.98-6.98s6.99 3.12 6.99 6.98v18.68h6.31c3.86 0 6.99 3.13 6.99 6.99v6.3h18.67c3.86 0 6.99 3.13 6.99 6.99s-3.13 6.99-6.99 6.99h-18.67v11.46h18.67c3.86 0 6.99 3.13 6.99 6.99s-3.13 6.98-6.99 6.98h-18.67v11.46h18.67c3.86 0 6.99 3.13 6.99 6.99s-3.13 6.99-6.99 6.99zm-40.34-49.48c0-3.86-3.13-6.99-6.99-6.99h-34.12c-3.86 0-6.99 3.13-6.99 6.99v34.12c0 3.86 3.13 6.98 6.99 6.98h34.12c3.86 0 6.99-3.12 6.99-6.98zm-53.05 168.9-5.52-24.43c-.54-2.43-2.34-4.38-4.71-5.13-6.58-2.08-13.14-4.8-19.49-8.08-2.2-1.14-4.85-1.03-6.94.3l-21.17 13.37c-16.05-10.91-30.12-24.97-41.05-41.02l13.38-21.16c1.32-2.1 1.44-4.73.3-6.94-3.21-6.25-5.94-12.82-8.1-19.53-.76-2.35-2.7-4.13-5.11-4.68l-24.43-5.54c-1.8-9.51-2.72-19.25-2.72-29 0-9.76.92-19.5 2.72-29.01l24.43-5.51c2.41-.55 4.36-2.33 5.11-4.69 2.16-6.73 4.88-13.3 8.1-19.51 1.14-2.21 1.02-4.85-.3-6.95l-13.38-21.16c10.95-16.07 25.02-30.14 41.05-41.05l21.17 13.37c2.09 1.33 4.74 1.44 6.94.3 6.22-3.21 12.78-5.93 19.52-8.09 2.36-.76 4.14-2.7 4.68-5.12l5.52-24.42c19.02-3.61 38.99-3.61 58.01 0l5.54 24.43c.54 2.41 2.32 4.35 4.67 5.11 6.74 2.16 13.3 4.89 19.5 8.09 2.2 1.14 4.84 1.03 6.94-.29l21.19-13.38c16.03 10.92 30.09 24.98 41.03 41.05l-13.35 21.17c-1.32 2.09-1.44 4.72-.31 6.92 3.29 6.4 6 12.97 8.07 19.51.75 2.37 2.7 4.16 5.12 4.71l24.43 5.51c1.8 9.51 2.72 19.25 2.72 29.01 0 9.75-.92 19.49-2.72 29l-24.43 5.54c-2.42.55-4.37 2.34-5.12 4.7-2.07 6.52-4.78 13.09-8.08 19.54-1.12 2.19-1 4.82.32 6.9l13.35 21.17c-10.93 16.04-24.99 30.1-41.03 41.03l-21.2-13.36c-2.08-1.32-4.71-1.43-6.91-.31-6.39 3.28-12.95 6-19.49 8.08-2.37.75-4.15 2.69-4.7 5.11l-5.54 24.44c-19.02 3.6-38.99 3.6-58.01 0zm29-60.77c50.22 0 91.07-40.86 91.07-91.07 0-50.22-40.85-91.07-91.07-91.07s-91.07 40.85-91.07 91.07c0 50.21 40.85 91.07 91.07 91.07z"/></svg>