<svg id="Layer_1" enable-background="new 0 0 66 66" height="512" viewBox="0 0 66 66" width="512" xmlns="http://www.w3.org/2000/svg"><g><g style="fill:none;stroke:#000;stroke-width:1.5;stroke-linecap:round;stroke-linejoin:round;stroke-miterlimit:10"><g><g><path d="m22.1 37.5c0 4-2.8 9.5-6.1 9.5s-6.1-5.5-6.1-9.5 2.8-5.6 6.1-5.6 6.1 1.7 6.1 5.6z"/><path d="m9.8 36.4s2.2 2.1 5.9 1.9c0 0-.5-.8-.8-1.9 0 0 3.3 2.7 7.1 1.7"/></g><g><path d="m21 48.9c5.2.8 8.8 3.3 8.8 9.2 0 1.1-.1 2.2-.4 3.3-.3 1.5-1.7 2.6-3.2 2.6h-20.6c-1.6 0-2.9-1.1-3.2-2.7-.3-1.1-.4-2.2-.4-3.2 0-5.9 3.7-8.4 8.8-9.2"/><g><path d="m14.9 52.6-1.2 5.9 2.2 2.2 2.2-2.2-1.2-5.9z"/><path d="m17.3 49.8-.4 2.8h-2l-.4-2.8z"/></g><path d="m21.5 56.5h4.5"/></g></g><g><g><path d="m56.2 37.5c0 4-2.8 9.5-6.1 9.5-3.4 0-6.1-5.5-6.1-9.5s2.8-5.6 6.1-5.6c3.4 0 6.1 1.7 6.1 5.6z"/><path d="m44 36.4s2.2 2.1 5.9 1.9c0 0-.5-.8-.8-1.9 0 0 3.3 2.7 7.1 1.7"/></g><g><path d="m55.2 48.9c5.2.8 8.8 3.3 8.8 9.2 0 1.1-.1 2.2-.4 3.3-.3 1.5-1.6 2.6-3.2 2.6h-20.7c-1.6 0-2.9-1.1-3.2-2.7-.2-1.1-.3-2.2-.3-3.2 0-5.9 3.7-8.4 8.8-9.2"/><g><path d="m49.1 52.6-1.2 5.9 2.2 2.2 2.2-2.2-1.2-5.9z"/><path d="m51.5 49.8-.4 2.8h-2l-.4-2.8z"/></g><path d="m55.7 56.5h4.4"/></g></g><g><path d="m38.9 14.1v10.9c0 1.2 1 2.2 2.2 2.2h13.5l5.4 3.3v-3.3h1.8c1.2 0 2.2-1 2.2-2.2v-10.9c0-1.2-1-2.2-2.2-2.2h-20.7c-1.3 0-2.2.9-2.2 2.2z"/><g><path d="m59.4 15.7h-16"/><path d="m59.4 19.6h-16"/><path d="m59.4 23.4h-11"/></g></g></g><g><path d="m34.9 4.9v14.3c0 1.6-1.3 2.9-2.9 2.9h-17.7l-7.1 4.3v-4.4h-2.3c-1.6 0-2.9-1.3-2.9-2.9v-14.2c0-1.6 1.3-2.9 2.9-2.9h27.1c1.6 0 2.9 1.3 2.9 2.9z" style="fill:none;stroke:#000;stroke-width:1.5;stroke-linecap:round;stroke-linejoin:round;stroke-miterlimit:10"/></g><g><g><g><path d="m23.3 13.4c-.1.4-.3.8-.5 1.2l.9 1-1.7 1.7-1-.9c-.4.2-.8.4-1.2.5l-.1 1.4h-2.4l-.1-1.4c-.4-.1-.8-.3-1.2-.5l-1 .9-1.7-1.7.9-1c-.2-.4-.4-.8-.5-1.2l-1.3-.1v-2.4l1.3-.1c.1-.4.3-.8.5-1.2l-.9-1 1.7-1.7 1 .9c.4-.2.8-.4 1.2-.5l.1-1.4h2.4l.1 1.4c.4.1.8.3 1.2.5l1-.9 1.7 1.7-.9 1c.2.4.4.8.5 1.2l1.4.1v2.4z" style="fill:none;stroke:#000;stroke-width:1.5;stroke-linecap:round;stroke-linejoin:round;stroke-miterlimit:10"/></g></g><circle cx="18.4" cy="12" r="1.9" style="fill:none;stroke:#000;stroke-width:1.5;stroke-linecap:round;stroke-linejoin:round;stroke-miterlimit:10"/></g></g></svg>