<svg enable-background="new 0 0 256 256" viewBox="0 0 256 256" xmlns="http://www.w3.org/2000/svg"><g id="_x31_8_space_research"><g><path d="m251.903 81.511-16.693-16.724c-.03 0-.03 0-.03 0-.548-.579-1.31-.914-2.163-.914h-46.21c15.018-26.471 4.661-54.831 4.539-55.166-.305-.823-.944-1.462-1.767-1.767-20.714-7.737-49.592-4.234-68.783 14.987-4.691 4.661-9.656 10.783-14.378 17.576-11.971-2.193-28.177 2.163-41.915 15.932l-8.468 8.438h-32.93c-.853 0-1.614.335-2.163.914l-16.876 16.876c-.579.548-.883 1.34-.883 2.132v166.047c0 1.523 1.279 3.046 3.046 3.046h104.971c7.037 0 13.159-3.716 16.723-9.199 3.533 5.514 9.687 9.199 16.693 9.199h104.971c1.584 0 3.229-1.432 3.229-3.198v-166.047c.001-.792-.334-1.584-.913-2.132zm-65.98-69.179c1.249 4.021 4.508 16.754 1.736 31.406-18.125-.457-32.746-15.109-33.112-33.234 14.622-2.802 27.294.518 31.376 1.828zm-43.895 24.278c9.687 0 17.546 7.89 17.546 17.576s-8.011 17.668-17.698 17.668-17.546-7.859-17.546-17.515c-.001-9.718 7.98-17.729 17.698-17.729zm-73.139 23.029c8.712-8.651 21.506-15.261 33.599-14.317-5.788 8.986-10.936 18.703-14.5 27.69-8.56-5.026-20.592-4.63-29.091-3.381zm21.232 60.619c-.975-.792-2.406-.914-3.503-.244l-20.927 12.611 13.251-21.658c.701-1.097.579-2.528-.244-3.534-.822-1.005-2.224-1.34-3.442-.883l-1.736.67 13.281-10.57 14.804 14.804-11.271 14.226.731-2.011c.427-1.218.061-2.589-.944-3.411zm34.757 109.662h-98.727v-159.802h23.639l-2.559 2.559c-.975.975-1.158 2.498-.457 3.716.701 1.188 2.132 1.736 3.473 1.371 6.945-2.041 25.892-5.422 35.579 1.28-1.462 4.569-2.406 8.834-2.62 12.55-.03.061 0 .091 0 .122l-29.03 22.999c-1.401 1.158-1.614 2.802-.883 4.051.731 1.31 2.315 1.889 3.716 1.34l11.941-4.539-15.109 24.674c-.731 1.188-.548 2.742.427 3.747 1.005.975 2.559 1.188 3.747.457l24.278-14.652-4.143 11.514c-.518 1.401.091 2.985 1.371 3.716 1.279.701 2.924.457 4.021-.944l22.999-29h.152c3.138-.183 6.702-.914 10.509-2.01 9.565 11.027 2.346 36.463 2.254 36.737-.396 1.31.183 2.741 1.371 3.473 1.219.701 2.742.487 3.716-.487l.152-.122s0 0 0-.03l.183-.152zm2.711-88.796c1.279-8.864 1.706-21.536-4.021-30.157 9.047-3.412 19.039-8.59 28.268-14.469 1.462 12.581-5.392 25.77-14.347 34.757zm102.229 88.796h-98.696v-83.16c0-.152-.061-.305-.091-.427l10.905-10.936c12.428-12.428 18.46-29.03 15.657-42.677 8.286-5.727 14.774-11.24 18.765-15.231 2.163-2.163 4.874-5.331 6.366-7.372h47.094z"/><path d="m153.329 54.339c0 6.245-5.026 11.271-11.301 11.271-6.336 0-11.454-5.118-11.454-11.423 0-6.275 4.996-11.332 11.301-11.332 6.306 0 11.454 5.148 11.454 11.484z"/></g></g><g id="Layer_1"/></svg>