<?xml version="1.0" encoding="iso-8859-1"?>
<!-- Generator: Adobe Illustrator 19.0.0, SVG Export Plug-In . SVG Version: 6.00 Build 0)  -->
<svg version="1.1" id="Capa_1" xmlns="http://www.w3.org/2000/svg" xmlns:xlink="http://www.w3.org/1999/xlink" x="0px" y="0px"
	 viewBox="0 0 496 496" style="enable-background:new 0 0 496 496;" xml:space="preserve">
<g>
	<g>
		<g>
			<path d="M469.44,354.384V280c0-46.176-30.272-85.376-72-98.912V64h16V48h16V32h-16v-8h16V8h-16V0h-96v8h-16v16h16v8h-16v8.224
				C281.36,25.088,256.472,16,229.44,16c-8.824,0-16-7.176-16-16h-16c0,8.824-7.176,16-16,16c-66.168,0-120,53.832-120,120v80
				c0,19.824,14.536,36.208,33.488,39.344c5.456,31.056,25.928,57.864,54.512,71.328v10.464l-41.312,6.352
				c-36.952,5.688-68.048,32.424-79.192,68.12L2.56,496h354.88v-0.176c2.664,0.056,5.248,0.176,8,0.176c84.936,0,128-29.608,128-88
				C493.44,387.384,484.744,368.056,469.44,354.384z M333.44,16h64v32h-64V16z M381.44,64v113.36c-2.64-0.408-5.296-0.752-8-0.96V64
				H381.44z M405.44,424v16h-80v-16H405.44z M333.44,371.736c-9.984-8.992-16-21.968-16-35.736c0-13.776,6.016-26.752,16-35.744
				V371.736z M349.44,408V193.528c2.632-0.488,5.296-0.88,8-1.12V408H349.44z M357.44,176.408c-2.704,0.208-5.36,0.544-8,0.96V136
				V64h8V176.408z M333.44,64v12.384c-2.48-4.312-5.248-8.432-8.224-12.384H333.44z M317.44,48v6.688
				c-2.144-2.32-4.368-4.544-6.688-6.688H317.44z M93.44,238.52c-9.288-3.304-16-12.104-16-22.52s6.712-19.216,16-22.528V238.52z
				 M109.44,238.744V185.64l19.992-46.648C141.224,144.144,165.736,152,205.44,152c12.976,0,25.352-0.84,36.8-2.512l-2.312-15.832
				C229.248,135.208,217.64,136,205.44,136c-52.304,0-75.384-14.536-75.56-14.656l-8-5.336L95.928,176.56
				c-6.888,0.96-13.184,3.632-18.488,7.648V136c0-57.344,46.656-104,104-104c9.544,0,18.136-4.2,24-10.856
				C211.304,27.8,219.896,32,229.44,32c57.344,0,104,46.656,104,104v45.088c-0.96,0.312-1.88,0.696-2.824,1.04
				c-4.768-2.984-10.104-4.856-15.688-5.632l-25.912-60.336l-7.96,5.152c-0.088,0.056-8.792,5.592-27.456,9.824l3.528,15.608
				c10.96-2.488,18.968-5.384,24.328-7.728l19.984,46.624v12.552c-24.304,19.056-40,48.608-40,81.808v28.448
				c-5.896,3.488-12.088,6.392-18.664,8.296l-4.736,1.368l-0.904,4.84C235.712,330.512,229.12,336,221.44,336
				c-3.88,0-7.656-1.488-10.648-4.168l-5.352-4.824l-5.352,4.824c-2.992,2.68-6.768,4.168-10.648,4.168
				c-7.68,0-14.272-5.488-15.696-13.048l-0.904-4.84l-4.736-1.368C133.568,306.76,109.44,274.68,109.44,238.744z M238.264,420.688
				l-0.6-0.144l-4.2,17.664l-18.112-22.648l41.928-62.888l4.16,0.648v1.064c-15.304,13.672-24,33-24,53.616
				C237.44,412.416,237.768,416.608,238.264,420.688z M139.224,354.896l14.384-2.216l41.928,62.888l-20,25.008l-19.896-46.424
				l-27.464-13.736l12.424-24.84L139.224,354.896z M197.44,480h-94.936l6.872-55.008l-15.872-1.984L86.376,480H24.32l19.88-63.624
				c9.352-29.896,35.4-52.304,66.368-57.072l11.136-1.712l-14.992,29.984l36.536,18.264l28.104,65.576l26.088-32.608V480z
				 M165.44,341.576v-0.584c5.912,6.76,14.512,11.008,24,11.008c5.64,0,11.152-1.52,16-4.368c4.848,2.848,10.36,4.368,16,4.368
				c9.488,0,18.088-4.248,24-11.008v0.584l-40,60L165.44,341.576z M213.44,480v-41.192l27.984,34.976l5.808-24.376
				c7.088,12.832,18.024,23.056,32.856,30.592H213.44z M365.44,480c-48.08,0-112-7.464-112-72c0-17.048,7.656-32.96,21.008-43.672
				l2.992-2.408V280c0-37.224,23.272-69.048,56-81.888v82.64c-19.544,11.36-32,32.424-32,55.248c0,22.816,12.456,43.88,32,55.248
				V408h-24v48h112v-48h-24v-16.752c19.544-11.36,32-32.424,32-55.248c0-22.816-12.464-43.88-32-55.248V256h-16v32v120h-8V192.408
				c2.704,0.248,5.368,0.64,8,1.12V240h16v-41.888c32.728,12.84,56,44.664,56,81.888v81.92l2.992,2.408
				C469.784,375.04,477.44,390.952,477.44,408C477.44,472.536,413.52,480,365.44,480z M397.44,371.744v-71.48
				c9.984,8.992,16,21.968,16,35.736C413.44,349.776,407.424,362.752,397.44,371.744z"/>
			<path d="M173.44,188c0-11.032-8.968-20-20-20s-20,8.968-20,20s8.968,20,20,20S173.44,199.032,173.44,188z M153.44,192
				c-2.2,0-4-1.8-4-4s1.8-4,4-4s4,1.8,4,4S155.64,192,153.44,192z"/>
			<path d="M257.44,208c11.032,0,20-8.968,20-20s-8.968-20-20-20c-11.032,0-20,8.968-20,20S246.408,208,257.44,208z M257.44,184
				c2.2,0,4,1.8,4,4s-1.8,4-4,4s-4-1.8-4-4S255.24,184,257.44,184z"/>
			<path d="M189.44,280h32c13.232,0,24-10.768,24-24h-16c0,4.416-3.584,8-8,8h-32c-4.416,0-8-3.584-8-8h-16
				C165.44,269.232,176.208,280,189.44,280z"/>
		</g>
	</g>
</g>
<g>
</g>
<g>
</g>
<g>
</g>
<g>
</g>
<g>
</g>
<g>
</g>
<g>
</g>
<g>
</g>
<g>
</g>
<g>
</g>
<g>
</g>
<g>
</g>
<g>
</g>
<g>
</g>
<g>
</g>
</svg>
