<svg id="Capa_1" enable-background="new 0 0 511.731 511.731" height="512" viewBox="0 0 511.731 511.731" width="512" xmlns="http://www.w3.org/2000/svg"><path d="m413.565 274.83 96.05-168.68-181.34-106.15c-16.849 29.58-26.737 44.487-33.98 70.31-25.083-6.588-51.762-6.592-76.86 0-7.274-25.932-16.79-40.14-33.98-70.31l-181.34 106.15 96.05 168.68-3.98 61.11c-2.99 45.92 13.2 91.35 44.4 124.66 63.536 67.774 170.276 68.573 234.56 0 31.2-33.31 47.39-78.74 44.4-124.66zm-295.81-26.23-74.9-131.53 129.56-75.84c41.872 73.455 22.113 162.396-54.66 207.37zm106.73 98.36c10.971-8.229 51.614-8.36 62.76 0-.84 17.05-14.59 30.65-31.38 30.65s-30.54-13.6-31.38-30.65zm46.38 133.87v-75.11c26.64-6.81 46.42-31.31 46.42-60.42 0-7.34-3.15-20.83-24.23-28.74-31.738-11.914-98.61-7.473-98.61 28.74 0 29.11 19.78 53.61 46.42 60.42v75.11c-70.501-8.039-121.382-71.863-116.74-142.93l3.94-60.58c23.293-13.614 41.754-26.203 60.7-51.68 12.804 20.91 44.96 11.788 44.96-12.81 0-13.3-10.6-24.15-23.73-24.44 11.64-27.72 16.27-58.24 13.1-88.53 21.087-5.917 43.943-6.06 65.54 0-3.17 30.29 1.46 60.81 13.1 88.53-13.13.29-23.73 11.14-23.73 24.44 0 24.609 32.163 33.708 44.96 12.81 18.995 25.544 37.504 38.123 60.7 51.68l3.94 60.57c4.642 71.085-46.244 134.902-116.74 142.94zm68.45-439.6 129.56 75.84-74.9 131.53c-76.425-44.771-96.771-133.492-54.66-207.37z"/></svg>